<?xml version="1.0" encoding="UTF-8"?> <svg xmlns="http://www.w3.org/2000/svg" height="512px" viewBox="-17 0 512 512.03323" width="512px" class=""> <g> <path d="m153.65625 379.488281c14.132812-.015625 25.582031-11.46875 25.597656-25.601562v-25.597657c0-4.714843-3.820312-8.535156-8.53125-8.535156-4.714844 0-8.535156 3.820313-8.535156 8.535156v25.597657c0 4.714843-3.820312 8.535156-8.53125 8.535156-4.714844 0-8.535156-3.820313-8.535156-8.535156v-51.199219c0-4.710938-3.820313-8.535156-8.53125-8.535156-4.714844 0-8.535156 3.824218-8.535156 8.535156v51.199219c.015624 14.132812 11.46875 25.585937 25.601562 25.601562zm0 0" data-original="#000000" class="active-path" data-old_color="#000000" fill="#D6B66F"></path> <path d="m358.457031 379.488281c14.128907-.015625 25.582031-11.46875 25.597657-25.601562v-51.199219c0-4.710938-3.820313-8.535156-8.53125-8.535156-4.714844 0-8.535157 3.824218-8.535157 8.535156v51.199219c0 4.714843-3.820312 8.535156-8.53125 8.535156-4.714843 0-8.535156-3.820313-8.535156-8.535156v-25.597657c0-4.714843-3.820313-8.535156-8.535156-8.535156-4.710938 0-8.53125 3.820313-8.53125 8.535156v25.597657c.015625 14.132812 11.46875 25.585937 25.601562 25.601562zm0 0" data-original="#000000" class="active-path" data-old_color="#000000" fill="#D6B66F"></path> <path d="m48.34375 270.9375c-8.816406 28.355469-13.582031 57.808594-14.15625 87.496094 0 62.777344 15.367188 107.675781 45.675781 133.433594 13.375 11.890624 30.332031 18.988281 48.191407 20.167968h256c17.859374-1.179687 34.816406-8.277344 48.191406-20.167968 30.308594-25.757813 45.675781-70.65625 45.675781-133.433594 0-61.285156-25.929687-139.300782-77-231.875 1.429687-11.898438-2.78125-23.78125-11.390625-32.121094-3.1875-2.742188-6.84375-4.882812-10.792969-6.316406-26.582031-43.992188-49.539062-75.707032-54-81.789063-3.859375-5.171875-10.964843-6.65625-16.574219-3.464843-15.324218 9.183593-22.191406 28.953124-24.910156 39.832031h-54.398437c-2.726563-10.882813-9.617188-30.667969-25.058594-39.921875-5.628906-3.121094-12.703125-1.558594-16.492187 3.644531-4.394532 5.992187-27.351563 37.710937-53.933594 81.707031-3.949219 1.433594-7.605469 3.570313-10.789063 6.3125-8.617187 8.347656-12.839843 20.242188-11.410156 32.152344-17.085937 30.589844-32.28125 62.195312-45.503906 94.640625-10.234375-7.050781-15.53125-13.945313-13.972657-18.8125 4.078126-9.828125 9.632813-18.976563 16.472657-27.128906 15.785156-21.164063 42.207031-56.570313 11.339843-102.535157-7.855468-12.230468-10.949218-26.917968-8.695312-41.277343l.015625-.0625c1.539063-6.617188.378906-13.574219-3.214844-19.339844-3.59375-5.761719-9.332031-9.863281-15.949219-11.394531-6.605468-1.566406-13.5625-.414063-19.308593 3.203125-5.816407 3.605469-9.941407 9.394531-11.449219 16.066406-5.359375 28.210937.414062 57.398437 16.109375 81.445313 9.757813 14.480468 7.238281 20.253906-9.925781 43.292968l-.527344.710938c-10.109375 12.390625-18.089844 26.371094-23.625 41.371094-10.222656 31.804687 6.722656 62.871093 45.40625 84.164062zm327.910156-121.636719c-10.042968 14.867188-23.449218 27.15625-39.132812 35.875-15.753906-8.761719-29.203125-21.132812-39.253906-36.097656-9.507813-17.082031-10.230469-34.332031-1.757813-41.945313 3.671875-3.109374 8.351563-4.78125 13.164063-4.699218 1.203124 0 2.402343.097656 3.589843.296875 7.296875 1.332031 13.527344 6.042969 16.800781 12.699219 1.636719 2.527343 4.445313 4.054687 7.457032 4.054687 3.015625 0 5.820312-1.527344 7.457031-4.054687 3.273437-6.65625 9.507813-11.367188 16.800781-12.699219 5.960938-1.085938 12.097656.527343 16.75 4.402343 8.476563 7.617188 7.75 24.867188-1.875 42.167969zm-242.273437-42.164062c3.671875-3.109375 8.347656-4.78125 13.15625-4.703125 1.203125 0 2.40625.097656 3.59375.296875 7.292969 1.332031 13.527343 6.042969 16.800781 12.699219 1.636719 2.527343 4.445312 4.054687 7.457031 4.054687s5.820313-1.527344 7.457031-4.054687c3.273438-6.65625 9.507813-11.367188 16.800782-12.699219 5.960937-1.089844 12.097656.523437 16.75 4.402343 8.476562 7.617188 7.75 24.867188-1.875 42.167969-10.042969 14.867188-23.449219 27.15625-39.132813 35.875-15.753906-8.761719-29.203125-21.132812-39.253906-36.097656-9.503906-17.078125-10.230469-34.328125-1.753906-41.941406zm-13.273438 50.03125c10.148438 19.539062 35.625 36.789062 49.898438 45.339843 2.699219 1.617188 6.066406 1.617188 8.765625 0 14.277344-8.550781 39.75-25.804687 49.785156-45.125 13.824219-24.851562 13.140625-49.558593-1.757812-62.945312-8.511719-7.367188-19.886719-10.503906-30.96875-8.542969-8.15625 1.371094-15.664063 5.300781-21.441407 11.21875-5.535156-5.636719-12.652343-9.460937-20.40625-10.960937 20.0625-32.449219 37.105469-56.652344 43.941407-66.132813 7.890624 9.039063 13.046874 20.136719 14.863281 31.996094v16.285156c0 4.710938 3.824219 8.53125 8.535156 8.53125s8.535156-3.820312 8.535156-8.53125v-8.535156h17.066407v25.601563c0 4.710937 3.820312 8.53125 8.53125 8.53125 4.714843 0 8.535156-3.820313 8.535156-8.53125v-25.601563h17.066406v8.535156c0 4.710938 3.820312 8.53125 8.53125 8.53125 4.714844 0 8.535156-3.820312 8.535156-8.53125v-16.28125c1.8125-11.867187 6.960938-22.972656 14.847656-32.019531 6.894532 9.558594 23.917969 33.75 43.957032 66.15625-7.753906 1.5-14.871094 5.320312-20.40625 10.957031-5.773438-5.917969-13.285156-9.847656-21.441406-11.21875-11.082032-1.964843-22.460938 1.175781-30.964844 8.546875-14.902344 13.382813-15.585938 38.089844-1.878906 62.726563 10.148437 19.539062 35.625 36.789062 49.898437 45.339843 2.699219 1.617188 6.070313 1.617188 8.769531 0 14.273438-8.550781 39.75-25.804687 49.78125-45.125 1.253906-2.25 2.25-4.492187 3.265625-6.730468 43.417969 82.136718 66.304688 153.683594 66.304688 207.78125 0 134.011718-73.71875 136.492187-76.800781 136.53125h-68.265626c-9.425781 0-17.066406-7.640625-17.066406-17.066406 0-9.425782 7.640625-17.066407 17.066406-17.066407h59.734376c4.710937 0 8.53125-3.820312 8.53125-8.53125 0-4.714843-3.820313-8.535156-8.53125-8.535156h-16.425782c5.140625-35.652344 41.785156-42.496094 43.457032-42.785156 4.601562-.832031 7.679687-5.207031 6.902343-9.816407-.777343-4.609374-5.117187-7.738281-9.734375-7.015624-30.367187 4.863281-53.914062 29.121093-57.871094 59.617187h-26.0625c-18.84375.019531-34.113281 15.292969-34.132812 34.132813.035156 6.011718 1.671875 11.902343 4.746094 17.066406h-60.695313c3.074219-5.164063 4.714844-11.054688 4.75-17.066406-.023437-18.839844-15.292969-34.113282-34.136719-34.132813h-26.0625c-3.953124-30.496094-27.503906-54.753906-57.867187-59.617187-3.035156-.554688-6.128906.566406-8.101563 2.9375-1.972656 2.367187-2.515624 5.617187-1.414062 8.496093 1.097656 2.882813 3.664062 4.945313 6.714844 5.402344 1.671875.277344 38.332031 6.867187 43.433594 42.78125h-16.433594c-4.714844 0-8.535156 3.820313-8.535156 8.535156 0 4.710938 3.820312 8.53125 8.535156 8.53125h59.730468c9.425782 0 17.066407 7.640625 17.066407 17.066407 0 9.425781-7.640625 17.066406-17.066407 17.066406h-68.265624c-.765626 0-76.800782-1.5625-76.800782-136.53125 0-54.09375 22.886719-125.636719 66.296875-207.773438.988281 2.164063 1.945313 4.332032 3.15625 6.507813zm-101.519531 34.824219c5.148438-13.449219 12.4375-25.976563 21.585938-37.101563 15.507812-20.820313 27.765624-37.253906 10.398437-63.019531-13.015625-20.171875-17.882813-44.53125-13.617187-68.15625.773437-3.371094 3.507812-5.945313 6.925781-6.511719 3.414062-.570313 6.832031.980469 8.65625 3.921875 1.203125 1.90625 1.589843 4.214844 1.078125 6.410156l.148437.03125c-3.554687 18.96875.378907 38.578125 10.972657 54.707032 24.125 35.925781 4.734374 61.921874-10.859376 82.8125-8.035156 9.613281-14.464843 20.460937-19.042968 32.121093-3.125 9.804688-1.144532 24.472657 23.9375 40.351563-2.070313 5.632812-4.015625 11.183594-5.832032 16.65625-17.015624-10.175782-44.140624-31.78125-34.351562-62.222656zm0 0" data-original="#000000" class="active-path" data-old_color="#000000" fill="#D6B66F"></path> <path d="m213.277344 271.703125c8.292968 16.105469 24.671875 26.441406 42.777344 26.996094 18.105468-.554688 34.488281-10.890625 42.777343-26.996094.066407-.097656.097657-.207031.160157-.304687 10.390624-19.144532 11.015624-42.097657 1.679687-61.777344-1.433594-2.929688-4.40625-4.785156-7.667969-4.789063h-73.898437c-3.257813.003907-6.234375 1.859375-7.664063 4.789063-9.339844 19.679687-8.714844 42.636718 1.679688 61.78125.0625.09375.089844.203125.15625.300781zm42.777344 9.929687c-10.265626-.359374-19.714844-5.703124-25.316407-14.316406 6.457031-7.179687 15.660157-11.28125 25.316407-11.28125s18.859374 4.101563 25.316406 11.28125c-5.601563 8.613282-15.046875 13.957032-25.316406 14.316406zm-31.28125-59.734374h62.566406c3.269531 9.292968 3.738281 19.339843 1.347656 28.894531-18.898438-15.769531-46.367188-15.769531-65.265625 0-2.386719-9.554688-1.917969-19.601563 1.351563-28.894531zm0 0" data-original="#000000" class="active-path" data-old_color="#000000" fill="#D6B66F"></path> <path d="m247.523438 187.765625h17.066406c4.710937 0 8.53125-3.820313 8.53125-8.53125 0-4.714844-3.820313-8.535156-8.53125-8.535156h-17.066406c-4.714844 0-8.535157 3.820312-8.535157 8.535156 0 4.710937 3.820313 8.53125 8.535157 8.53125zm0 0" data-original="#000000" class="active-path" data-old_color="#000000" fill="#D6B66F"></path> </g> </svg> 