<?xml version="1.0" encoding="UTF-8"?> <svg xmlns="http://www.w3.org/2000/svg" width="690" height="2057" viewBox="0 0 690 2057" fill="none"> <path d="M309.293 1985.5C298.387 1977.62 292.016 1969.64 289.789 1961.09C281.531 1929.17 254.867 1905.87 224.949 1905.87C195.035 1905.87 167.371 1929.17 159.113 1961.11C156.887 1969.62 150.516 1977.62 139.605 1985.51C126.324 1995.13 120.25 2010.01 123.75 2024.36C127.957 2041.62 147.125 2056.97 173.344 2056.97C184.43 2056.97 194.957 2054.13 203.773 2048.76C209.629 2045.17 217.598 2043.27 224.922 2043.27C232.242 2043.27 239.195 2045.16 245.129 2048.74C253.973 2054.14 264.441 2057 275.426 2057C301.629 2057 320.914 2041.73 325.152 2024.36C328.652 2010.01 322.562 1995.12 309.293 1985.5Z" fill="black"></path> <path d="M148.977 1905.87C148.977 1888.52 135.258 1860.88 118.988 1860.88C102.723 1860.88 89 1888.52 89 1905.87C89 1922.4 102.457 1935.86 118.988 1935.86C135.52 1935.86 148.977 1922.4 148.977 1905.87V1905.87Z" fill="black"></path> <path d="M329.91 1860.88C313.645 1860.88 299.922 1888.52 299.922 1905.87C299.922 1922.4 313.379 1935.86 329.91 1935.86C346.441 1935.86 359.898 1922.4 359.898 1905.87C359.898 1888.52 346.18 1860.88 329.91 1860.88V1860.88Z" fill="black"></path> <path d="M239.945 1845.89C239.945 1862.42 253.402 1875.88 269.934 1875.88C286.465 1875.88 299.922 1862.42 299.922 1845.89C299.922 1828.54 286.203 1800.91 269.934 1800.91C253.664 1800.91 239.945 1828.54 239.945 1845.89Z" fill="black"></path> <path d="M178.969 1875.88C195.5 1875.88 208.957 1862.42 208.957 1845.89C208.957 1828.54 195.234 1800.91 178.969 1800.91C162.699 1800.91 148.977 1828.54 148.977 1845.89C148.977 1862.42 162.434 1875.88 178.969 1875.88Z" fill="black"></path> <g clip-path="url(#clip0)"> <path d="M295.975 1470.42C285.67 1461.77 279.896 1453.34 278.297 1444.65C272.382 1412.21 247.482 1387.04 217.643 1384.86C187.808 1382.69 158.524 1403.92 147.966 1435.17C145.126 1443.5 138.19 1451.02 126.735 1458.09C112.79 1466.72 105.65 1481.12 108.098 1495.68C111.039 1513.21 129.04 1529.91 155.189 1531.82C166.246 1532.62 176.952 1530.55 186.136 1525.84C192.237 1522.68 200.323 1521.36 207.627 1521.9C214.928 1522.43 221.726 1524.82 227.383 1528.83C235.811 1534.86 246.044 1538.47 256.999 1539.26C283.133 1541.17 303.478 1527.34 308.967 1510.33C313.501 1496.27 308.51 1480.97 295.975 1470.42Z" fill="black"></path> <path d="M141.872 1379.34C143.133 1362.03 131.459 1333.48 115.233 1332.29C99.0103 1331.11 83.3151 1357.67 82.0537 1374.98C80.8519 1391.47 93.2951 1405.87 109.783 1407.07C126.27 1408.27 140.67 1395.83 141.872 1379.34V1379.34Z" fill="black"></path> <path d="M325.597 1347.63C309.374 1346.44 293.679 1373.01 292.417 1390.31C291.216 1406.8 303.659 1421.2 320.146 1422.4C336.634 1423.6 351.034 1411.16 352.235 1394.67C353.497 1377.37 341.823 1348.81 325.597 1347.63V1347.63Z" fill="black"></path> <path d="M236.96 1326.13C235.758 1342.62 248.201 1357.02 264.689 1358.22C281.176 1359.43 295.576 1346.98 296.778 1330.49C298.039 1313.19 286.366 1284.63 270.139 1283.45C253.913 1282.27 238.222 1308.83 236.96 1326.13Z" fill="black"></path> <path d="M173.965 1351.61C190.452 1352.81 204.852 1340.37 206.054 1323.88C207.315 1306.57 195.637 1278.02 179.415 1276.84C163.188 1275.65 147.494 1302.21 146.232 1319.52C145.03 1336.01 157.473 1350.41 173.965 1351.61Z" fill="black"></path> </g> <g clip-path="url(#clip1)"> <path d="M267.25 952.018C258.481 941.813 254.147 932.567 253.976 923.733C253.391 890.765 232.896 861.888 203.803 854.911C174.714 847.935 142.379 864.141 126.9 893.272C122.748 901.038 114.688 907.327 102.238 912.456C87.0796 918.715 77.7029 931.767 77.7603 946.535C77.8256 964.302 92.8848 983.7 118.381 989.815C129.161 992.4 140.061 992.09 149.887 988.923C156.418 986.798 164.611 986.806 171.733 988.515C178.852 990.222 185.172 993.682 190.106 998.553C197.446 1005.87 206.96 1011.09 217.641 1013.65C243.122 1019.76 265.437 1009.4 273.608 993.509C280.359 980.369 277.91 964.465 267.25 952.018Z" fill="black"></path> <path d="M129.925 837.193C133.972 820.32 127.076 790.25 111.255 786.456C95.4378 782.662 75.6491 806.333 71.6025 823.206C67.7472 839.281 77.6948 855.506 93.7702 859.361C109.846 863.216 126.07 853.269 129.925 837.193V837.193Z" fill="black"></path> <path d="M316.361 835.646C300.544 831.852 280.755 855.523 276.708 872.396C272.853 888.471 282.801 904.696 298.876 908.551C314.951 912.406 331.176 902.459 335.031 886.383C339.078 869.51 332.182 839.44 316.361 835.646V835.646Z" fill="black"></path> <path d="M232.374 800.082C228.518 816.161 238.465 832.385 254.541 836.241C270.616 840.096 286.84 830.149 290.697 814.069C294.743 797.196 287.846 767.13 272.025 763.335C256.204 759.541 236.421 783.209 232.374 800.082Z" fill="black"></path> <path d="M166.084 815.027C182.16 818.882 198.384 808.934 202.24 792.855C206.287 775.982 199.386 745.915 183.569 742.121C167.748 738.327 147.96 761.994 143.914 778.867C140.057 794.946 150.005 811.17 166.084 815.027Z" fill="black"></path> </g> <g clip-path="url(#clip2)"> <path d="M229.824 492.508C223.651 480.553 221.571 470.555 223.446 461.92C230.493 429.71 217.225 396.879 190.531 383.369C163.841 369.86 128.636 378.157 106.846 402.924C101.012 409.52 91.7164 413.777 78.4188 415.89C62.2242 418.477 50.0855 429.009 46.7292 443.391C42.6878 460.692 52.8575 483.046 76.2507 494.885C86.1419 499.892 96.8189 502.108 107.111 501.297C113.956 500.739 121.925 502.64 128.46 505.947C134.991 509.253 140.341 514.08 144.016 519.959C149.467 528.773 157.518 536.048 167.319 541.008C190.698 552.841 214.802 547.922 226.425 534.344C236.028 523.12 237.321 507.081 229.824 492.508Z" fill="black"></path> <path d="M122.746 349.061C130.582 333.579 130.82 302.729 116.304 295.382C101.791 288.037 77.0687 306.495 69.233 321.976C61.7678 336.726 67.6976 354.81 82.4473 362.275C97.197 369.74 115.281 363.81 122.746 349.061V349.061Z" fill="black"></path> <path d="M304.494 390.631C289.982 383.285 265.259 401.743 257.424 417.225C249.959 431.975 255.888 450.058 270.638 457.523C285.388 464.989 303.471 459.059 310.937 444.309C318.772 428.828 319.011 397.978 304.494 390.631V390.631Z" fill="black"></path> <path d="M230.997 336.624C223.53 351.377 229.46 369.461 244.21 376.926C258.959 384.392 277.043 378.462 284.51 363.709C292.346 348.227 292.582 317.381 278.066 310.033C263.55 302.686 238.833 321.143 230.997 336.624Z" fill="black"></path> <path d="M163.048 335.848C177.798 343.313 195.881 337.384 203.348 322.63C211.184 307.149 211.417 276.301 196.904 268.955C182.388 261.608 157.668 280.063 149.832 295.544C142.365 310.298 148.295 328.381 163.048 335.848Z" fill="black"></path> </g> <path d="M560.203 1679.59C549.297 1671.71 542.926 1662.73 540.699 1654.18C532.441 1622.26 504.777 1599.96 474.859 1599.96C444.945 1599.96 418.281 1622.26 410.023 1654.2C407.797 1662.72 401.426 1671.71 390.516 1679.61C377.234 1689.23 371.16 1704.11 374.66 1718.46C378.867 1735.71 398.035 1751.07 424.254 1751.07C435.34 1751.07 445.867 1748.23 454.684 1742.85C460.539 1739.26 467.508 1737.36 474.832 1737.36C482.152 1737.36 490.105 1739.25 496.039 1742.84C504.883 1748.24 515.352 1751.1 526.336 1751.1C552.539 1751.1 571.824 1735.82 576.062 1718.46C579.562 1704.11 573.473 1689.21 560.203 1679.59V1679.59Z" fill="black"></path> <path d="M399.891 1599.96C399.891 1582.61 386.168 1554.98 369.898 1554.98C353.633 1554.98 339.91 1582.61 339.91 1599.96C339.91 1616.49 353.367 1629.95 369.898 1629.95C386.434 1629.95 399.891 1616.49 399.891 1599.96Z" fill="black"></path> <path d="M580.82 1554.98C564.555 1554.98 550.832 1582.61 550.832 1599.96C550.832 1616.49 564.289 1629.95 580.82 1629.95C597.355 1629.95 610.812 1616.49 610.812 1599.96C610.812 1582.61 597.09 1554.98 580.82 1554.98V1554.98Z" fill="black"></path> <path d="M490.855 1539.98C490.855 1556.52 504.312 1569.97 520.844 1569.97C537.375 1569.97 550.832 1556.52 550.832 1539.98C550.832 1522.63 537.113 1495 520.844 1495C504.574 1495 490.855 1522.63 490.855 1539.98V1539.98Z" fill="black"></path> <path d="M399.891 1539.98C399.891 1556.52 413.348 1569.97 429.879 1569.97C446.41 1569.97 459.867 1556.52 459.867 1539.98C459.867 1522.63 446.145 1495 429.879 1495C413.609 1495 399.891 1522.63 399.891 1539.98Z" fill="black"></path> <path d="M564.851 1182.7C554.547 1174.05 548.845 1164.63 547.246 1155.94C541.331 1123.5 515.361 1099.25 485.522 1097.07C455.687 1094.9 427.473 1115.2 416.915 1146.46C414.075 1154.79 407.067 1163.3 395.611 1170.38C381.666 1179.01 374.526 1193.4 376.974 1207.97C379.915 1225.49 397.916 1242.19 424.066 1244.1C435.122 1244.91 445.828 1242.84 455.012 1238.12C461.113 1234.97 468.202 1233.57 475.506 1234.11C482.807 1234.64 490.602 1237.1 496.259 1241.11C504.687 1247.14 514.92 1250.75 525.875 1251.55C552.009 1253.46 572.354 1239.62 577.843 1222.61C582.377 1208.55 577.386 1193.26 564.851 1182.7V1182.7Z" fill="black"></path> <path d="M410.752 1091.62C412.013 1074.32 400.336 1045.76 384.109 1044.58C367.887 1043.4 352.192 1069.96 350.93 1087.26C349.728 1103.75 362.172 1118.15 378.659 1119.35C395.15 1120.55 409.55 1108.11 410.752 1091.62Z" fill="black"></path> <path d="M594.473 1059.91C578.251 1058.73 562.555 1085.29 561.294 1102.6C560.092 1119.08 572.535 1133.48 589.023 1134.69C605.514 1135.89 619.914 1123.45 621.116 1106.96C622.377 1089.65 610.7 1061.09 594.473 1059.91V1059.91Z" fill="black"></path> <path d="M505.836 1038.42C504.635 1054.91 517.078 1069.31 533.565 1070.51C550.053 1071.71 564.453 1059.27 565.654 1042.78C566.916 1025.47 555.242 996.917 539.016 995.734C522.789 994.551 507.098 1021.11 505.836 1038.42V1038.42Z" fill="black"></path> <path d="M415.112 1031.81C413.91 1048.29 426.353 1062.69 442.841 1063.9C459.328 1065.1 473.728 1052.65 474.93 1036.17C476.191 1018.86 464.514 990.303 448.291 989.121C432.065 987.938 416.373 1014.5 415.112 1031.81Z" fill="black"></path> <path d="M571.198 709.352C562.43 699.147 558.329 688.929 558.158 680.094C557.572 647.127 535.872 618.989 506.779 612.012C477.69 605.036 446.56 620.503 431.081 649.634C426.929 657.403 418.636 664.662 406.186 669.794C391.027 676.052 381.651 689.101 381.707 703.873C381.774 721.636 396.833 741.034 422.329 747.149C433.109 749.734 444.008 749.428 453.835 746.257C460.366 744.132 467.587 743.907 474.709 745.615C481.827 747.323 489.12 751.016 494.054 755.887C501.394 763.203 510.907 768.425 521.589 770.986C547.069 777.097 569.385 766.739 577.556 750.843C584.307 737.703 581.857 721.803 571.198 709.352V709.352Z" fill="black"></path> <path d="M433.877 594.528C437.924 577.655 431.024 547.584 415.203 543.79C399.386 539.996 379.597 563.667 375.551 580.54C371.695 596.615 381.643 612.84 397.718 616.695C413.798 620.551 430.022 610.604 433.877 594.528Z" fill="black"></path> <path d="M620.309 592.98C604.492 589.186 584.703 612.857 580.656 629.73C576.801 645.805 586.749 662.03 602.824 665.885C618.903 669.741 635.128 659.794 638.983 643.718C643.03 626.845 636.13 596.774 620.309 592.98V592.98Z" fill="black"></path> <path d="M536.321 557.42C532.466 573.495 542.414 589.72 558.489 593.575C574.564 597.43 590.789 587.483 594.644 571.407C598.691 554.534 591.795 524.464 575.974 520.67C560.153 516.875 540.368 540.547 536.321 557.42V557.42Z" fill="black"></path> <path d="M447.865 536.205C444.009 552.281 453.957 568.505 470.032 572.36C486.108 576.216 502.332 566.268 506.187 550.193C510.234 533.32 503.334 503.249 487.517 499.455C471.696 495.661 451.911 519.332 447.865 536.205Z" fill="black"></path> <path d="M570.334 322.971C564.161 311.016 562.532 300.126 564.407 291.492C571.454 259.281 556.842 226.891 530.148 213.38C503.458 199.872 469.597 207.728 447.807 232.495C441.971 239.094 432.226 244.24 418.927 246.357C402.732 248.944 390.595 259.473 387.237 273.858C383.197 291.156 393.367 313.509 416.76 325.349C426.652 330.355 437.327 332.575 447.62 331.761C454.466 331.202 461.543 332.652 468.077 335.959C474.609 339.265 480.851 344.543 484.526 350.422C489.977 359.236 498.026 366.515 507.827 371.475C531.206 383.308 555.312 378.386 566.934 364.808C576.538 353.583 577.829 337.547 570.334 322.971V322.971Z" fill="black"></path> <path d="M463.259 179.526C471.095 164.044 471.329 133.193 456.813 125.846C442.301 118.5 417.578 136.958 409.743 152.44C402.278 167.19 408.207 185.273 422.957 192.738C437.71 200.205 455.794 194.276 463.259 179.526Z" fill="black"></path> <path d="M645.004 221.094C630.492 213.749 605.769 232.207 597.934 247.688C590.468 262.438 596.398 280.522 611.148 287.987C625.901 295.454 643.985 289.524 651.45 274.774C659.286 259.293 659.52 228.441 645.004 221.094V221.094Z" fill="black"></path> <path d="M571.505 167.091C564.04 181.841 569.97 199.924 584.719 207.39C599.469 214.855 617.553 208.925 625.018 194.175C632.854 178.694 633.092 147.844 618.576 140.497C604.059 133.15 579.341 151.609 571.505 167.091V167.091Z" fill="black"></path> <path d="M490.343 126.013C482.878 140.763 488.808 158.846 503.558 166.312C518.307 173.777 536.391 167.847 543.856 153.097C551.692 137.616 551.927 106.764 537.414 99.4188C522.898 92.0718 498.179 110.531 490.343 126.013Z" fill="black"></path> <defs> <clipPath id="clip0"> <rect x="108.288" y="1015.07" width="512" height="512" transform="rotate(4.16895 108.288 1015.07)" fill="white"></rect> </clipPath> <clipPath id="clip1"> <rect x="155.762" y="472.289" width="512" height="512" transform="rotate(13.4864 155.762 472.289)" fill="white"></rect> </clipPath> <clipPath id="clip2"> <rect x="232.194" width="512" height="512" transform="rotate(26.8452 232.194 0)" fill="white"></rect> </clipPath> </defs> </svg> 