<?xml version="1.0" encoding="UTF-8"?> <svg xmlns="http://www.w3.org/2000/svg" height="512px" viewBox="0 0 61 60" width="512px"> <g> <g id="038---Improved-Sense-of-Smell" transform="translate(0 -1)"> <path id="Shape" d="m49 1c-6.627417 0-12 5.372583-12 12s5.372583 12 12 12 12-5.372583 12-12c-.0071648-6.62444695-5.375553-11.99283515-12-12zm0 22c-5.5228475 0-10-4.4771525-10-10s4.4771525-10 10-10 10 4.4771525 10 10c-.0060624 5.5203344-4.4796656 9.9939376-10 10z" data-original="#000000" class="active-path" data-old_color="#000000" fill="#D6B66F"></path> <path id="Shape" d="m52.2 8.4-5.308 7.078-1.185-1.185c-.3923789-.3789722-1.0160848-.3735524-1.4018186.0121814s-.3911536 1.0094397-.0121814 1.4018186c2.18 2.18 2.168 2.293 2.707 2.293.3147573 0 .6111456-.1481942.8-.4l6-8c.3313708-.4418278.2418278-1.06862915-.2-1.4s-1.0686292-.2418278-1.4.2z" data-original="#000000" class="active-path" data-old_color="#000000" fill="#D6B66F"></path> <path id="Shape" d="m37.343 28.283-6-20.988c-1.0647779-3.72678533-4.4710897-6.29618303-8.347-6.29618303s-7.2822221 2.5693977-8.347 6.29618303l-6 20.988c-3.50771263.8355397-6.2933481 3.4958382-7.28937618 6.9613977s-.04798593 7.1989452 2.48081126 9.7694236 6.24618662 3.5794229 9.72756492 2.6401787c5.4900739 4.4630016 13.3579261 4.4630016 18.848 0 3.4813783.9392442 7.1987677-.0697003 9.7275649-2.6401787s3.4768394-6.3038641 2.4808113-9.7694236-3.7816636-6.125858-7.2893762-6.9613977zm-3.137 17.654c.844856-.9506926 1.5656166-2.004784 2.145-3.137 1.2567195.4491606 2.6595388.1429782 3.614813-.7889769.9552741-.9319551 1.2960249-2.3267808.8780533-3.5942148-.4179716-1.2674339-1.5216056-2.1859336-2.8438663-2.3668083.0138071-.5522847-.4227153-1.0111929-.975-1.025s-1.0111929.4227153-1.025.975c0 7.1797017-5.8202983 13-13 13s-13-5.8202983-13-13c-.01380712-.5522847-.47271525-.9888071-1.025-.975s-.98880712.4727153-.975 1.025c-1.32226072.1808747-2.42589475 1.0993744-2.84386631 2.3668083-.41797155 1.267434-.07722081 2.6622597.87805335 3.5942148.95527417.9319551 2.35809349 1.2381375 3.61481296.7889769.5796738 1.1308159 1.3004243 2.1835485 2.145 3.133-3.95247941.3957101-7.59496055-2.1736687-8.5481984-6.0298349-.95323784-3.8561661 1.07257827-7.8267386 4.7541984-9.3181651-.11700449.3383305-.04462391.713382.18987667.9838761s.59549495.3953364.94700001.3275.64011884-.3180456.75712332-.6563761c14.3-50.049.181-.634 6.684-23.395.8193288-2.86776934 3.4404842-4.84493297 6.423-4.84493297s5.6036712 1.97716363 6.423 4.84493297c6.547 22.914-7.642-26.745 6.684 23.4.098248.3436895.3723891.608857.719157.6956165.3467678.0867594.7134802-.01807.962-.275.2485198-.2569301.3410911-.626927.242843-.9706165l-.032-.11c3.6894845 1.4867672 5.7223035 5.4620894 4.767732 9.3236391-.9545714 3.8615497-4.6054655 6.4318633-8.562732 6.0283609zm3.638-7.893c.6759001.1592482 1.1541375.7615956 1.156 1.456.0036362.4600885-.2073437.8955923-.570643 1.1779188-.3632992.2823265-.8374164.379224-1.282357.2620812.3287938-.9395371.5623012-1.9097487.697-2.896zm-28.991 2.896c-.44490093.1167116-.91877851.0196448-1.28196093-.2625909s-.57426734-.7174656-.57103907-1.1774091c.00186249-.6944044.48009987-1.2967518 1.156-1.456.13469879.9862513.3682062 1.9564629.697 2.896z" data-original="#000000" class="active-path" data-old_color="#000000" fill="#D6B66F"></path> <path id="Shape" d="m12.707 50.294c-.2859855-.2861653-.7162224-.3718179-1.09-.217-.268.111-.075-.034-3.325 3.216-.37897221.3923789-.37355237 1.0160848.01218142 1.4018186.3857338.3857338 1.00943969.3911536 1.40181858.0121814l1.294-1.293v1.586c0 2.209139-1.790861 4-4 4h-5c-.55228475 0-1 .4477153-1 1s.44771525 1 1 1h5c3.3123376-.0033074 5.9966926-2.6876624 6-6v-1.586l1.293 1.293c.3923789.3789722 1.0160848.3735524 1.4018186-.0121814s.3911536-1.0094397.0121814-1.4018186z" data-original="#000000" class="active-path" data-old_color="#000000" fill="#D6B66F"></path> <path id="Shape" d="m44 59h-5c-2.209139 0-4-1.790861-4-4v-1.586l1.293 1.293c.3923789.3789722 1.0160848.3735524 1.4018186-.0121814s.3911536-1.0094397.0121814-1.4018186l-3-3c-.2859855-.2861653-.7162224-.3718179-1.09-.217-.268.111-.075-.034-3.325 3.216-.3789722.3923789-.3735524 1.0160848.0121814 1.4018186s1.0094397.3911536 1.4018186.0121814l1.294-1.292v1.586c.0033074 3.3123376 2.6876624 5.9966926 6 6h5c.5522847 0 1-.4477153 1-1s-.4477153-1-1-1z" data-original="#000000" class="active-path" data-old_color="#000000" fill="#D6B66F"></path> <path id="Shape" d="m23.707 53.294c-.2859855-.2861653-.7162224-.3718179-1.09-.217-.268.111-.075-.034-3.325 3.216-.3789722.3923789-.3735524 1.0160848.0121814 1.4018186s1.0094397.3911536 1.4018186.0121814l1.294-1.293v3.586c0 .5522847.4477153 1 1 1s1-.4477153 1-1v-3.586l1.293 1.293c.2510745.2599566.6228779.3642126.9725073.2726972.3496295-.0915155.6226744-.3645604.7141899-.7141899.0915154-.3496294-.0127406-.7214328-.2726972-.9725073z" data-original="#000000" class="active-path" data-old_color="#000000" fill="#D6B66F"></path> </g> </g> </svg> 