<?xml version="1.0" encoding="UTF-8"?> <svg xmlns="http://www.w3.org/2000/svg" width="923" height="946" viewBox="0 0 923 946" fill="none"> <g filter="url(#filter0_d)"> <path d="M110.125 315.497C133.003 261.308 116.716 217.585 152.625 170.997C190.123 122.35 233.259 118.59 288.625 91.9973C376.958 49.5703 438.8 -30.9697 526.625 12.4973C575.142 36.5097 576.41 81.8216 617.125 117.497C681.461 173.869 752.353 158.462 809.625 221.997C881.034 301.216 872 425.997 871.625 480.497C871.251 534.997 876.152 620.753 829.125 689.497C777.107 765.54 715.927 792.394 625.125 807.997C551.7 820.615 525.616 771.737 435.625 785.997C374.457 795.69 350.421 849.602 288.625 845.497C216.317 840.694 165.476 806.531 135.625 740.497C111.898 688.009 147.455 649.372 135.625 592.997C120.596 521.378 42.2451 498.695 50.6254 425.997C56.238 377.309 91.0627 360.649 110.125 315.497Z" fill="#FAFAFA"></path> </g> <defs> <filter id="filter0_d" x="0" y="0" width="922.182" height="945.72" filterUnits="userSpaceOnUse" color-interpolation-filters="sRGB"> <feFlood flood-opacity="0" result="BackgroundImageFix"></feFlood> <feColorMatrix in="SourceAlpha" type="matrix" values="0 0 0 0 0 0 0 0 0 0 0 0 0 0 0 0 0 0 127 0"></feColorMatrix> <feOffset dy="50"></feOffset> <feGaussianBlur stdDeviation="25"></feGaussianBlur> <feColorMatrix type="matrix" values="0 0 0 0 0 0 0 0 0 0 0 0 0 0 0 0 0 0 0.1 0"></feColorMatrix> <feBlend mode="normal" in2="BackgroundImageFix" result="effect1_dropShadow"></feBlend> <feBlend mode="normal" in="SourceGraphic" in2="effect1_dropShadow" result="shape"></feBlend> </filter> </defs> </svg> 