<?xml version="1.0" encoding="UTF-8"?> <svg xmlns="http://www.w3.org/2000/svg" id="Capa_1" height="512px" viewBox="0 0 512 512" width="512px"> <g> <path d="m467.5 99c4.143 0 7.5-3.358 7.5-7.5v-14c0-26.191-21.309-47.5-47.5-47.5h-14.5v-12.5c0-9.649-7.851-17.5-17.5-17.5h-29c-9.649 0-17.5 7.851-17.5 17.5v12.5h-47v-5c0-13.785-11.215-25-25-25s-25 11.215-25 25v203h-190c-13.785 0-25 11.215-25 25 0 11.362 7.622 20.972 18.019 24.001.732 63.019 47.405 115.196 108.027 124.517l-33.155 65.482h-5.391c-9.649 0-17.5 7.851-17.5 17.5v10c0 9.649 7.851 17.5 17.5 17.5h283c9.649 0 17.5-7.851 17.5-17.5v-64c0-9.649-7.851-17.5-17.5-17.5h-10c-8.798 0-16.081 6.534-17.3 15h-69.837l-13.275-26.219c61.204-8.482 108.658-60.567 109.881-123.781h20.531c26.191 0 47.5-21.309 47.5-47.5v-104c0-4.142-3.357-7.5-7.5-7.5s-7.5 3.358-7.5 7.5v104c0 17.92-14.579 32.5-32.5 32.5h-125.5v-27.5-190.5h125.5c17.921 0 32.5 14.58 32.5 32.5v14c0 4.143 3.357 7.5 7.5 7.5zm-200.5-74c0-5.514 4.486-10 10-10s10 4.486 10 10v203h-20zm-215 228c0-5.514 4.486-10 10-10h225v20h-225c-5.514 0-10-4.486-10-10zm72.5 244c-1.379 0-2.5-1.122-2.5-2.5v-10c0-1.378 1.121-2.5 2.5-2.5h9.969c.008 0 .017.001.025.001.007 0 .014-.001.021-.001h190.969c.007 0 .014.001.021.001.009 0 .017-.001.025-.001h9.969c1.379 0 2.5 1.122 2.5 2.5v10c0 1.378-1.121 2.5-2.5 2.5zm270.5-66.5c0-1.378 1.121-2.5 2.5-2.5h10c1.379 0 2.5 1.122 2.5 2.5v64c0 1.378-1.121 2.5-2.5 2.5h-12.5zm-15 12.5v54h-27.2c.118-.819.2-1.649.2-2.5v-10c0-9.649-7.851-17.5-17.5-17.5h-5.391l-12.152-24zm11.968-165c-1.335 60.883-51.272 110-112.468 110h-42.5c-4.143 0-7.5 3.358-7.5 7.5s3.357 7.5 7.5 7.5h42.5c.462 0 .921-.013 1.382-.018l32.414 64.018h-166.592l32.428-64.045c1.119.029 2.242.045 3.368.045h19.5c4.143 0 7.5-3.358 7.5-7.5s-3.357-7.5-7.5-7.5h-19.5c-61.196 0-111.134-49.117-112.468-110zm-27.968-260.5c0-1.378 1.121-2.5 2.5-2.5h29c1.379 0 2.5 1.122 2.5 2.5v12.5h-34z" data-original="#000000" class="active-path" data-old_color="#000000" fill="#D6B56E"></path> <path d="m158.897 207.534c.85.314 1.729.466 2.601.466 2.148 0 4.243-.924 5.696-2.62l12.611-14.713c5.812-6.779 14.265-10.667 23.195-10.667 17.094 0 31-13.907 31-31s-13.906-31-31-31c-27.019 0-49 21.981-49 49v33.5c0 3.139 1.954 5.945 4.897 7.034zm10.103-40.534c0-18.748 15.252-34 34-34 8.822 0 16 7.178 16 16s-7.178 16-16 16c-13.019 0-25.358 5.543-34 15.239z" data-original="#000000" class="active-path" data-old_color="#000000" fill="#D6B56E"></path> <path d="m90 150c8.93 0 17.383 3.888 23.194 10.668l12.611 14.713c1.453 1.696 3.548 2.62 5.696 2.62.871 0 1.751-.152 2.601-.466 2.943-1.089 4.897-3.896 4.897-7.034v-33.501c0-27.019-21.981-49-49-49-17.094 0-31 13.907-31 31s13.907 31 31.001 31zm0-47c18.748 0 34 15.252 34 34v13.239c-8.642-9.696-20.981-15.239-34-15.239-8.822 0-16-7.178-16-16s7.178-16 16-16z" data-original="#000000" class="active-path" data-old_color="#000000" fill="#D6B56E"></path> </g> </svg> 